<svg width="36" height="34" viewBox="0 0 36 34" fill="none" xmlns="http://www.w3.org/2000/svg">
<g clip-path="url(#clip0_3_4269)">
<mask id="mask0_3_4269" style="mask-type:luminance" maskUnits="userSpaceOnUse" x="0" y="0" width="36" height="33">
<path d="M35.9 0.234375H0V32.5203H35.9V0.234375Z" fill="white"/>
</mask>
<g mask="url(#mask0_3_4269)">
<path d="M0.00680219 21.2245C0.00680219 21.0055 -0.0172918 20.9267 0.00680219 20.8675C0.832568 19.0802 1.47872 17.0936 3.33177 16.1057C5.21767 15.1025 7.24814 14.3753 9.19975 13.4926C13.0285 11.7578 16.2089 9.26738 18.3511 5.57444C18.8395 4.72677 19.2666 3.85936 19.2272 2.81456C19.1856 1.50035 19.904 0.562877 21.0255 0.295653C22.101 0.039381 23.1239 0.606723 23.6824 1.86837C25.3624 5.65112 27.0139 9.44481 28.6742 13.2363C29.7825 15.7618 30.8996 18.2851 31.9904 20.8194C32.5884 22.2125 32.3365 23.3513 31.3333 24.0041C30.3301 24.6568 29.2963 24.5035 28.2186 23.4587C27.8728 23.1368 27.4576 22.8984 27.0052 22.7622C22.6923 21.31 18.4912 21.9232 14.3383 23.4521C13.7206 23.6711 13.8126 23.9866 14.1193 24.4291C15.0962 25.8725 16.0534 27.3291 17.0062 28.79C17.9962 30.3079 17.7575 31.1293 16.1301 31.8565C15.865 31.9748 15.6 32.0974 15.3349 32.2135C14.0514 32.7699 13.471 32.5969 12.6802 31.4009C11.6398 29.8261 10.5731 28.2665 9.58525 26.6588C9.14718 25.9426 8.69158 25.8243 7.98847 26.2207C6.99624 26.7683 5.99525 26.8779 5.03149 26.1375C4.69636 25.8747 4.33057 26.0521 3.97793 26.0696C2.60457 26.1397 1.74594 25.6709 1.17864 24.4465C0.766852 23.5572 0.40982 22.6439 0.0527912 21.7328C0.0100919 21.567 -0.00543361 21.3953 0.00680219 21.2245ZM27.1672 21.1501C24.8017 15.7552 22.5675 10.6363 20.2326 5.32685C19.5952 6.43737 19.1045 7.35738 18.4671 8.18534C16.6642 10.5176 14.4025 12.4558 11.8216 13.8803C11.1798 14.2395 11.055 14.5768 11.366 15.2514C12.2619 17.1921 13.0964 19.1612 13.9462 21.1238C14.1434 21.5816 14.3843 21.8094 14.9451 21.6298C18.8527 20.3659 22.8084 20.0001 27.1738 21.1501H27.1672ZM6.7772 25.0271C6.87025 25.0126 6.96136 24.9875 7.0488 24.9525C8.80109 24.1837 10.5687 23.404 12.3341 22.6417C12.8226 22.4227 12.7218 22.1051 12.5663 21.748C11.6902 19.7198 10.7812 17.6959 9.91162 15.661C9.69258 15.1397 9.42534 15.039 8.90622 15.2756C7.25469 16.0313 5.58784 16.7475 3.92536 17.4659C3.16749 17.7967 3.01636 18.342 3.33615 19.0605C4.11008 20.8215 4.88035 22.5841 5.64698 24.348C5.83973 24.7795 6.096 25.1146 6.78378 25.038L6.7772 25.0271ZM30.7375 21.8313C30.6631 21.6341 30.5514 21.2902 30.4068 20.9551C27.8047 15.0032 25.1959 9.05492 22.5806 3.11029C22.3266 2.53422 22.1645 1.50906 21.2358 1.94494C20.3596 2.36111 20.9642 3.16059 21.2204 3.74761C23.8576 9.80468 26.5058 15.8552 29.1649 21.8992C29.2478 22.1001 29.3506 22.2924 29.4715 22.4731C29.5508 22.619 29.6811 22.7306 29.8374 22.7868C29.9937 22.8429 30.1651 22.8397 30.3192 22.7776C30.6872 22.6418 30.7792 22.3438 30.7441 21.8313H30.7375ZM12.01 24.5627C11.2412 24.5627 10.4767 25.2373 10.7571 25.6798C11.815 27.3291 12.8773 28.9653 14.0032 30.5774C14.542 31.3396 15.1291 30.5927 15.635 30.4131C16.2702 30.1941 15.83 29.7691 15.635 29.4647C14.7049 28.0351 13.7652 26.6122 12.816 25.1957C12.6233 24.9044 12.4721 24.5342 12.0165 24.5627H12.01ZM3.77203 23.9954C3.35586 23.0492 2.89589 21.9583 2.39211 20.8807C2.28697 20.6507 2.26944 20.2104 1.86642 20.3462C1.71349 20.411 1.59075 20.5312 1.52289 20.6828C1.45503 20.8344 1.44707 21.006 1.50063 21.1632C1.71591 21.8097 1.96523 22.4444 2.24754 23.0645C2.46657 23.5858 2.60895 24.1837 3.19597 24.4509C3.35475 24.5241 3.5325 24.5456 3.70413 24.5123C3.86184 24.4751 3.85088 24.2911 3.7786 23.9954H3.77203Z" fill="#00457C"/>
<path d="M29.5219 2.54963C29.3028 3.2374 29.0619 4.06753 28.775 4.88234C28.6282 5.3007 28.2668 5.20209 27.9492 5.11229C27.5725 5.00496 27.257 4.82974 27.3972 4.35443C27.6163 3.59438 27.8681 2.84097 28.0981 2.08311C28.2208 1.67789 28.499 1.62085 28.8604 1.71284C29.2218 1.80484 29.5679 1.921 29.5219 2.54963Z" fill="#0275D8"/>
<path d="M32.0135 10.4325C31.4045 10.5092 31.3016 10.174 31.1658 9.88049C31.0037 9.53441 31.0387 9.24091 31.4177 9.06787C32.1427 8.73932 32.8699 8.41078 33.608 8.09537C34.0461 7.907 34.2783 8.15013 34.4426 8.53344C34.5784 8.84666 34.7317 9.19058 34.3418 9.38552C33.5248 9.78635 32.6881 10.1433 32.0135 10.4325Z" fill="#0275D8"/>
<path d="M35.0179 17.6827C34.2687 17.2907 33.386 16.8723 32.5515 16.3685C32.2514 16.1889 32.477 15.8363 32.5975 15.5822C32.718 15.3281 32.9041 15.0346 33.2546 15.1901C34.0519 15.5362 34.8361 15.9108 35.618 16.2853C35.9509 16.4474 35.9422 16.7431 35.8086 17.0323C35.675 17.3214 35.5873 17.6718 35.0179 17.6827Z" fill="#0275D8"/>
<path d="M8.77982 17.9896C8.75573 18.5678 8.24537 18.6467 7.8752 18.7585C7.1261 18.9775 6.47556 19.8536 5.63228 19.3433C5.24896 19.1067 4.89851 18.4408 5.7177 18.075C6.37481 17.7837 7.03192 17.5055 7.68903 17.2186C8.48632 16.8703 8.59145 17.477 8.77982 17.9896Z" fill="#0275D8"/>
</g>
</g>
<defs>
<clipPath id="clip0_3_4269">
<rect width="36" height="33" fill="white" transform="translate(0 0.234375)"/>
</clipPath>
</defs>
</svg>
